# xmcd
#
# Track frame offsets: 
#        150
#        18036
#        32310
#        44575
#        55955
#        65821
#        79829
#        93024
#        105411
#        118208
#        131852
#        145048
#        156976
#        168395
#
# Disc length: 2422 seconds
#
# Revision: 0
# Processed by: cddbd v1.5.2PL0 Copyright (c) Steve Scherf et al.
# Submitted via: ExactAudioCopyFreeDBPlugin 1.0
#
DISCID=b709740e
DTITLE=Frank Sinatra - Hello Frank - Old Devil Moon
DYEAR=2015
DGENRE=Blues
TTITLE0=OLD DEVIL MOON
TTITLE1=PENNIES FROM HEAVEN
TTITLE2=LOVE IS HERE TO STAY
TTITLE3=I THOUGHT ABOUT YOU
TTITLE4=TOGETHER
TTITLE5=MAKIN' WHOOPEE
TTITLE6=SWINGIN' DOWN THE LANE
TTITLE7=ANYTHING GOES
TTITLE8=HOW ABOUT YOU?
TTITLE9=YOU GOT TO MY HEAD
TTITLE10=YOURS IS MY HEART ALONE
TTITLE11=WHO TOLD YOU I CARED
TTITLE12=YOU'VE GOT A HOLD ON ME
TTITLE13=EVERY DAY OF MY LIFE
EXTD=
EXTT0=
EXTT1=
EXTT2=
EXTT3=
EXTT4=
EXTT5=
EXTT6=
EXTT7=
EXTT8=
EXTT9=
EXTT10=
EXTT11=
EXTT12=
EXTT13=
PLAYORDER=
